<?xml version="1.0" encoding="utf-8"?>
<!-- Generator: Adobe Illustrator 13.0.0, SVG Export Plug-In . SVG Version: 6.00 Build 14948)  -->
<!DOCTYPE svg PUBLIC "-//W3C//DTD SVG 1.1//EN" "http://www.w3.org/Graphics/SVG/1.1/DTD/svg11.dtd">
<svg version="1.1" id="Layer_1" xmlns="http://www.w3.org/2000/svg" xmlns:xlink="http://www.w3.org/1999/xlink" x="0px" y="0px"
	 width="1000px" height="1000px" viewBox="0 0 1000 1000" enable-background="new 0 0 1000 1000" xml:space="preserve">
<path fill="#378F43" d="M530.528,746.397c-3.77,0.627-7.536,1.256-11.307,1.885c-0.312-0.314-0.627-0.629-0.94-0.941
	c0.89-4.008,1.087-3.152,2.827-5.652c-1.258-0.939-2.514-1.885-3.77-2.824c5.636-1.154,8.773-2.025,10.36-7.537
	c-1.966-1.812-1.034-7.355,0.942-10.361c4.218,1.715,5.867,3.779,8.479,1.885c-2.533-10.688,10.499-18.42,14.131-24.492
	c2.215-3.707,1.854-16.678,5.652-27.32c1.882,0,3.77,0,5.649,0c0.854-8.785,2.525-11.18,6.598-16.014
	c-2.642-3.393-2.17-4.463-3.771-9.422c5.781-2.723,11.917-0.775,10.361-11.305c1.569,0.312,3.141,0.627,4.711,0.941
	c0-0.941,0-1.883,0-2.826c-0.941-1.256-1.886-2.512-2.825-3.768c8.847-3.537,7.137-12.391,15.07-16.018c5.024,0,10.049,0,15.073,0
	c4.406,4.842,3.628,4.627,9.421,6.594c5.729-1.971,37.257-2.389,48.985,0.943c-1.146,15.742-12.462,15.23-23.551,20.725
	c0.626,0.941,1.255,1.885,1.884,2.826c2.869,1.904,17.58,30.496,25.437,5.65c-0.63-0.625-1.258-1.254-1.885-1.883
	c5.023-1.736,7.03-4.195,9.42-8.48c-0.312-0.938-0.629-1.883-0.941-2.824c-2.513-0.941-5.023-1.885-7.536-2.824
	c2.5-5.428,3.107-8.309,2.827-15.072c4.604-0.988,6.148-1.514,8.479-4.711c0-0.941,0-1.885,0-2.826
	c-8.238-3.547-9.957-8.312-16.959-12.246c1.569-1.883,3.143-3.77,4.712-5.652c1.569-0.629,3.141-1.258,4.709-1.885
	c1.258,1.256,2.514,2.514,3.77,3.77c-2.255,3.215-3.094,3.051-3.77,8.479c0.629,0.627,1.258,1.256,1.885,1.885
	c2.514-0.312,5.024-0.629,7.537-0.941c1.569-0.943,3.142-1.885,4.709-2.826c-1.312-9.207-6.363-25.33,2.827-35.797
	c0.627,0,1.255,0,1.885,0c0,1.568,0,3.139,0,4.711c1.885-0.629,3.77-1.258,5.651-1.887c0.313-0.314,0.628-0.629,0.94-0.939
	c-1.73-6.107-1.383-16.844,2.826-22.611c1.885,0.631,3.77,1.258,5.651,1.887c-0.94-1.256-1.884-2.514-2.825-3.77
	c-1.472-5.023-2.684-6.75-7.538-8.477c1.557-5.203,4.646-6.666,7.538-10.363c6.907-3.766,13.816-7.537,20.726-11.305
	c0-0.943,0-1.885,0-2.826c-1.885-1.256-3.77-2.512-5.651-3.77c-3.23,2.756-5.067,4.605-9.42,6.596
	c-6.96-3.904-11.615-6.182-16.958-8.48c-1.023-9.094-6.076-11.42-12.245-15.072c0-1.568,0-3.139,0-4.711
	c1.569-1.885,3.14-3.768,4.709-5.65c6.708,1.479,7.229,7.254,12.247,8.479c4.153,1.016,8.994-1.119,14.131,0
	c0,0.312,0,0.627,0,0.941c-1.258,0.629-2.513,1.256-3.769,1.885c0.312,0.629,0.627,1.256,0.939,1.885
	c9.416,0.865,18.052-0.398,26.378,0.941c1.569,4.711,3.142,9.42,4.709,14.131c1.886-0.312,3.77-0.627,5.652-0.941
	c0,1.57,0,3.141,0,4.709c1.257-0.941,2.513-1.885,3.771-2.826c0-0.312,0-0.627,0-0.941c-5.555-14.074-8.867-14.707-21.667-21.666
	c-0.313-2.828-0.63-5.654-0.942-8.479c-3.139,3.141-6.28,6.279-9.42,9.42c-0.628,0-1.257,0-1.884,0
	c-3.84-5.215-9.185-9.105-16.017-11.305c0.314-0.629,0.629-1.256,0.941-1.885c4.912-1.717,7.622-4.693,10.361-8.479
	c-0.313-1.256-0.628-2.514-0.939-3.77c-4.812,3.158-6.14,7.449-12.247,9.42c0-0.312,0-0.627,0-0.939
	c0.94-1.887,1.884-3.771,2.825-5.652c-1.972-2.59-2.097-2.57-5.652-3.77c0.943-1.885,1.884-3.77,2.827-5.65
	c2.198-0.943,4.396-1.885,6.595-2.826c0-2.199,0-4.396,0-6.596c-0.312,0-0.629,0-0.941,0c-6.632,5.469-9.952,7.188-19.782,3.77
	c-0.163-10.293,2.145-14.057,8.479-17.898c-6.278,0-12.562,0-18.842,0c1.573-4.213,1.278-2.6-0.939-6.596
	c-5.165-0.143-3.319,1.592-5.652-1.883c-5.354-10.406-13.963-25.715-15.074-34.855c-8.06,0.1-10.678-1.67-15.071-4.711
	c0-2.197,0-4.396,0-6.596c0.313,0,0.63,0,0.942,0c3.407,3.096,2.666,4.846,6.594,2.826c1.745-7.746,3.527-8.053-2.825-16.957
	c3.941-4.865,7.399-9.094,13.188-12.246c8.672,6.268,17.449,13.102,28.263,16.016c0-0.312,0-0.627,0-0.941
	c-3.524-9.934-6.989-10.258-14.131-15.072c0.925-8.754-5.843-13.727-3.77-21.668c1.568,0.943,3.141,1.887,4.71,2.826
	c-0.862-9.219-8.663-27.252-10.361-32.029c1.884-6.279,3.769-12.561,5.651-18.842c-0.942-0.627-1.885-1.254-2.826-1.883
	c-4.083,1.256-8.165,2.512-12.247,3.77c1.022-8.32-8.669-25.254-17.898-20.727c-2.087,7.809-9.577,6.359-13.188,3.77
	c-3.141-4.082-6.281-8.166-9.42-12.248c1.884-0.627,3.768-1.256,5.65-1.885c-0.628-0.941-1.256-1.885-1.885-2.824
	c-7.485-2.061-11.354-8.461-13.188-18.844c-8.431-2.695-17.079-5.02-23.553-9.42c-0.312-5.648-0.628-11.303-0.941-16.957
	c-0.313,0-0.629,0-0.94,0c-11.607,4.443-16.306-6.135-26.378-2.824c-1.256-3.453-2.512-6.91-3.77-10.361
	c-2.197-0.314-4.396-0.629-6.594-0.943c-0.628,0.943-1.257,1.885-1.886,2.826c0.312,3.143,0.629,6.281,0.942,9.42
	c-0.313,0-0.63,0-0.942,0c-8.308-3.777-18.768-4.598-28.261-8.479c-12.261-5.01-15.206-11.488-27.318-16.016
	c0.322-5.059-0.003-10.922-6.596-12.246c-0.312,2.512-0.627,5.025-0.941,7.537c-8.343-0.779-17.088-4.646-18.841-9.422
	c6.502,0.176,8.789-0.662,12.247-2.826c0.627-3.768,1.256-7.535,1.884-11.304c9.266,5.517,11.98,10.497,26.377,9.421
	c0.313,2.514,0.628,5.023,0.941,7.537c1.257,0,2.514,0,3.769,0c0-0.629,0-1.256,0-1.885c1.704-5.875-0.17-5.689,3.77-11.305
	c3.76-1.131,3.408-1.398,7.536-0.941c-0.941-2.825-1.885-5.653-2.826-8.479c2.513-2.514,5.023-5.025,7.536-7.537
	c4.485,3.201,35.758-12.809,41.45-14.131c2.735,7.611,10.725,6.051,17.897,3.768c0.378,3.584-1.061,1.172,0.94,3.768
	c10.108-1.314,27.521-4.312,30.146-13.188c-3.991-0.295-3.734,0.059-5.65-1.885c3.463-2.494,2.376-1.73,1.884-6.594
	c7.246-0.521,10.75-2.109,10.362-8.479c9.622,0.602,8.434-2.846,14.13-4.711c4.396,0.943,8.793,1.885,13.188,2.828
	c2.594-5.689,6.145-6.576,14.13-6.596c0,0.314,0,0.628,0,0.941c-8.93,24.488-1.125,19.297-21.665,35.799
	c-10.402-4.895-41.52,4.68-46.16,15.072c6.909-0.506,11.46-0.607,18.841-3.77c0.941,0.314,1.884,0.629,2.825,0.941
	c-2.848,3.611-5.612,5.396-5.65,9.42c0.628,0,1.255,0,1.884,0c10.827,6.231,18.044,0.682,31.087,0
	c0.943-2.826,1.885-5.652,2.827-8.477c6.594,3.139,13.189,6.277,19.783,9.42c1.568,3.14,3.14,6.28,4.709,9.421
	c2.513-0.314,5.026-0.629,7.536-0.943c9.551,3.531,16.922,16.902,28.263,19.783c6.28-0.312,12.561-0.627,18.841-0.941
	c7.949,1.627,32.44,9.842,36.74,7.535c-2.826-4.395-5.653-8.791-8.479-13.188c1.885-0.314,3.77-0.629,5.652-0.941
	c-0.63-0.941-1.257-1.885-1.885-2.826c-9.796-1.758-15.17-4.291-16.956-14.131c5.167-0.688,14.543-11.688,23.552-14.132
	c14.085-3.822,55.916,12.044,61.229,17.899c-0.319,3.895,1.087,8.012,4.711,10.363c14.36,9.318,20.702,8.174,33.915,18.84
	c2.037-3.008,1.42-3.707,0-7.535c0.627-2.826,1.256-5.652,1.884-8.479c0.627-0.314,1.256-0.629,1.886-0.941
	c3.139,3.451,6.279,6.908,9.42,10.361c3.14-0.629,6.279-1.256,9.42-1.885c0,1.256,0,2.514,0,3.77
	c-0.629,1.883-1.256,3.768-1.886,5.652c-3.139-0.629-6.281-1.256-9.42-1.885c-0.628,0.629-1.255,1.256-1.884,1.885
	c4.211,8.301,1.254,12.729,7.536,23.551c3.454,3.453,6.911,6.906,10.362,10.361c-3.229,0.281-2.023-0.678-4.711,1.885
	c3.199,9.324,16.367,18.463,22.608,26.377c0.312,0,0.627,0,0.94,0c1.222-2,1.157-1.363,1.885-4.711
	c-1.568-4.396-3.141-8.791-4.709-13.188c0.312-0.312,0.627-0.629,0.94-0.941c3.142,1.885,6.279,3.77,9.42,5.652
	c-0.627-4.396-1.256-8.793-1.884-13.189c2.104,2.715,2.48,4.742,5.65,6.594c0.038-2.268,0.386-3.857,1.884-6.594
	c0.63,0.314,1.259,0.627,1.886,0.941c5.183,12.609,17.416,22.74,24.492,34.857c20.798,35.6,36.235,80.35,47.104,124.35
	c14.029,56.793,16.177,138.82,4.712,200.652c-3.456,14.131-6.911,28.264-10.363,42.395c-1.568-0.312-3.143-0.627-4.711-0.939
	c-2.763,23.934-12.481,32.992-22.607,48.041c-4.082,10.361-8.164,20.73-12.246,31.09c-12.991,22.316-26.121,43.912-42.393,63.115
	c-10.944,12.918-28.124,18.199-38.625,32.029c2.137,1.285,1.863,1.369,5.654,1.885c6.906-3.143,13.815-6.279,20.724-9.42
	c0-1.572,0-3.143,0-4.711c12.586,3.066,16.606-19.012,22.608-29.203c4.989-8.479,15.276-13.117,19.782-23.551
	c0.628,0,1.257,0,1.884,0c0,0.312,0,0.629,0,0.939c-18.649,49.113-67.805,119.098-114.929,138.48
	c-10.594,4.354-28.354,3.357-38.623,6.594c-0.438-4.859,2.01-2.852-2.827-4.711c-3.183,5.855-7.841,6.111-9.42,14.131
	c18.878,0.896,33.557-3.811,49.928-7.535c0,0.312,0,0.627,0,0.941c-17.258,20.145-46.195,34.299-69.71,48.045
	c-54.979,32.139-169.273,79.988-263.768,65.941c-14.13-0.314-28.265-0.629-42.394-0.941c-29.86-5.053-82.57-10.037-103.625-24.494
	c3.884-1.166,3.312-1.561,5.653-3.768c-0.314-0.943-0.629-1.885-0.942-2.826c-2.198-0.941-4.396-1.885-6.595-2.826
	c18.517-9.043,44.959-2.66,66.885-7.535c0.785-3.857,0.674-5.857,2.826-9.422c10.672-2.895,30.56-11.744,39.566-10.361
	c-7.168-9.771-39.288-11.691-32.029-26.377c2.197-1.885,4.396-3.77,6.594-5.65c-0.041-6.953-1.594-10.531-3.769-15.072
	c24.692,2.646,49.253,6,66.886-4.713c-1.546-8.037-6.479-11.287-10.362-16.955c0.941,0,1.884,0,2.825,0
	c-3.906-4.547-15.354-3.422-19.781-9.42c-0.313-0.943-0.628-1.885-0.942-2.828c0.313-0.312,0.628-0.629,0.942-0.941
	c18.651-1.5,13.253-7.139,34.854-2.824c3.342-4.111,8.581-4.826,12.247-8.48c-1.074-3.939-1.35-2.08,0-5.65
	c24.566-0.832,12.014-14.312,22.607-20.725c7.397-4.479,10.426,3.219,16.958-4.711c5.973-0.84,10.524,7.166,14.129-2.828
	c-5.217-0.287-5.555-0.318-7.536-3.768c-2.811-5.633-6.488-16.873-5.65-21.666c4.599-0.5,7.829-1.316,10.362-3.77
	c-2.037-3.312-1.448-0.852-1.885-4.711c0.941-0.627,1.885-1.256,2.827-1.883c0.312,0,0.627,0,0.939,0
	c0.94,4.395,1.886,8.791,2.827,13.188c-2.887,0.021-1.317-0.904-3.769,0.939c-1.178,8.439,3.534,13.945,7.536,19.783
	c2.195,0.312,4.396,0.629,6.593,0.941c1.885-2.824,3.769-5.65,5.652-8.479c3.766,1.57,7.536,3.143,11.306,4.711
	c7.337-7.137,15.693-14.207,25.436-18.842c5.338-2.195,10.676-4.396,16.015-6.592c-5.811-8.879-8.013-16.6-1.886-26.379
	c6.168-0.486,7.521-2.23,11.308-4.709c-0.313-2.197-0.629-4.396-0.942-6.596c-0.313,0-0.629,0-0.94,0
	c-2.198,1.254-4.396,2.514-6.596,3.77c0-0.629,0-1.256,0-1.885c-0.629-2.197-1.255-4.396-1.884-6.596
	c10.657-4.062,24.993-15.734,32.971-23.553c-0.628-0.625-1.255-1.254-1.884-1.883c-12.323,5.191-26.947,5.662-32.972,18.842
	c-5.024-0.943-10.051-1.885-15.071-2.826c0.09-11.814-5.636-10.645-6.596-20.725c5.216-7.9,9.98-20.031,12.247-31.09
	c-5.935-5.123-16.975-4.51-20.728,2.826c-1.543,3.848,0.146,9.803,1.886,13.189c1.257,0,2.512,0,3.769,0
	c-5.652,8.479-11.305,16.959-16.956,25.438c1.336,7.354,1.052,10.406,2.827,17.896c6.663,1.67,10.521,2.047,14.129,6.596
	c-3.179,3.859-6.62,4.119-11.305,6.596c2.587,3.035,3.787,3.043,3.769,6.594c-3.795,0.381-3.685,0.309-5.652,1.883
	c1.658,4.668,3.195,6.955,5.652,10.363c-5.88,6.635-8.373,12.578-11.305,22.609c-2.197,0.312-4.396,0.625-6.594,0.939
	c-1.059-5.152-2.002-10.66-5.653-14.131c-2.718,1.219-0.271,2.35-2.824,0.941c-3.906-5.697-1.924-13.42-6.596-18.842
	c-3.527,1.02-1.12,1.639-4.709,0c-0.629-2.51-1.258-5.021-1.886-7.535c-0.63,0.314-1.257,0.627-1.884,0.941
	c0.242,5.168,0.72,5.902-0.941,8.479c-4.674,0.326-5.125,4.73-8.479,9.422c-2.825,0.627-5.651,1.256-8.479,1.885
	c-3.77-2.826-7.535-5.652-11.305-8.479c0-0.941,0-1.885,0-2.828C525.204,755.595,529.66,754.005,530.528,746.397z"/>
<path fill="#378F43" d="M425.019,134.07c-0.312,2.512-0.627,5.021-0.94,7.535c-4.123,5.629-10.139,10.212-17.898,12.247
	c0,1.256,0,2.514,0,3.77c1.882,2.197,3.769,4.395,5.652,6.594c5.427-4.301,11.875-7.256,22.607-7.537
	c2.689,3.527,4.968,4.717,9.422,6.596c-0.313,0.627-0.628,1.254-0.942,1.883c-4.396,3.141-8.792,6.281-13.188,9.42
	c-3.454-1.254-6.909-2.512-10.362-3.768c-0.941,0.314-1.884,0.627-2.825,0.941c0.548,4.365,0.706,5.627,3.768,7.537
	c4.62,1.555,16.762,3.867,25.437,9.42c-0.627,0.943-1.255,1.885-1.884,2.826c-13.864,4.172-9.935,13.85-18.843,21.668
	c-0.94-0.943-1.884-1.885-2.825-2.826c-7.534,5.336-15.071,10.676-22.608,16.014c0,0-5.791-3-7.536-1.885
	c-16.099,10.311-37.66,16.842-60.291,22.609c-0.941,4.709-1.884,9.422-2.826,14.131c-0.312,0-0.628,0-0.941,0
	c-0.627-2.512-1.255-5.023-1.884-7.535c-0.313,0-0.629,0-0.942,0c-0.628,0.941-1.256,1.883-1.884,2.826
	c-1.256,8.477-2.513,16.957-3.77,25.436c-0.312,0-0.627,0-0.94,0c-3.142-0.627-6.281-1.256-9.42-1.885
	c-0.628,0.627-1.256,1.256-1.885,1.885c0.94,1.568,1.885,3.141,2.825,4.709c-4.554-0.887-2.94-1.398-6.593,0
	c0.628,2.826,1.256,5.652,1.884,8.479c-13.013,6.062-17.378,14.531-27.318,22.607c-1.256-0.312-2.512-0.627-3.768-0.941
	c-0.38-3.797-0.308-3.688-1.884-5.65c-1.256,0.627-2.512,1.256-3.768,1.883c-5.24,20.471-13.45,15.621-22.609,27.318
	c7.66-2.109,11.742,2.658,15.072,7.537c-6.28,11.262-13.439,20.195-15.072,36.738c4.062,0.197,4.547,0.248,6.594,1.887
	c0,0.312,0,0.627,0,0.939c-2.826,0.314-5.652,0.629-8.478,0.941c0,1.258,0,2.514,0,3.77c7.601,0.686,7.175,3.986,9.42,9.42
	c1.256,0,2.513,0,3.768,0c0.942-1.568,1.884-3.139,2.826-4.709c0.942,1.256,1.885,2.514,2.827,3.77
	c0.627-0.314,1.255-0.629,1.884-0.943c0.771-5.512,2.333-7.816,4.71-11.305c2.455,2,1.955,2.506,5.652,3.77
	c2.513-1.256,5.024-2.514,7.536-3.77c-1.098,6.479,1.182,5.463,5.653,8.479c-0.942,1.254-1.884,2.514-2.826,3.77
	c-8.32,1.545-10.691,4.496-16.957,6.594c-0.629-1.568-1.256-3.141-1.884-4.711c-1.256,0-2.513,0-3.768,0
	c-1.642,7.584-4.797,10.479-14.131,10.363c1.959,4.52,6.257,3.879,10.362,5.65c0,0.314,0,0.629,0,0.943
	c-4.896,3.58-12.123,5.799-18.84,7.535c-0.314,1.256-0.628,2.512-0.942,3.768c5.336,1.885,10.676,3.771,16.014,5.654
	c4.367-2.926,6.075-4.697,12.247-3.77c0.208-17.396,16.154-21.131,32.029-16.957c2.826,2.826,5.652,5.652,8.478,8.479
	c-0.312,0.629-0.628,1.258-0.94,1.885c-7.385-1.059-12.325-4.631-17.898,0c0,0.312,0,0.627,0,0.941
	c4.458-0.055,6.274,0.121,8.478,1.885c-0.627,1.568-1.256,3.139-1.884,4.709c1.256,0.314,2.512,0.629,3.768,0.943
	c1.256-1.57,2.513-3.141,3.768-4.711c0,0.627,0,1.256,0,1.883c1.256,2.828,2.513,5.652,3.768,8.48
	c-6.771,4.775-10.6,3.514-19.782,5.65c0,0.312,0,0.629,0,0.943c4.082,3.453,8.164,6.906,12.246,10.359
	c-0.942,2.516-1.884,5.027-2.826,7.537c-3.552-2.322-3.352-2.814-7.536-2.826c-1.884,2.514-3.768,5.023-5.653,7.537
	c0.314,2.512,0.629,5.023,0.942,7.535c2.512,0.629,5.026,1.256,7.537,1.885c0,0.312,0,0.627,0,0.941
	c-0.314,0.629-0.628,1.256-0.942,1.885c-3.455-0.943-6.91-1.885-10.363-2.826c-1.255,0.941-2.512,1.883-3.768,2.826
	c-0.314,1.57-0.628,3.141-0.942,4.711c0.314,0.312,0.628,0.627,0.942,0.941c2.198,0,4.396,0,6.594,0
	c-2.478,1.988-2.772,5.135-4.71,7.537c-1.884-0.629-3.768-1.258-5.652-1.885c-1.06,4.705-3.12,3.596-6.594,6.594
	c1.921,8.172-3.688,11.443-5.653,18.842c1.885-0.314,3.769-0.629,5.653-0.943c0,0.943,0,1.885,0,2.826
	c-4.749,0.73-3.595,1.109-6.595,2.826c0.942,2.514,1.885,5.023,2.827,7.537c-1.885-0.314-3.769-0.629-5.653-0.943
	c0,1.256,0,2.514,0,3.771c0.942,2.824,1.884,5.65,2.826,8.479c-0.313,0-0.628,0-0.942,0c-0.628-0.314-1.255-0.627-1.884-0.943
	c-1.182-4.168-0.592-4.188-4.71-5.65c-0.314,2.197-0.627,4.395-0.942,6.594c-3.14-0.312-6.28-0.627-9.42-0.941
	c3.116-5.107,6.971-6.688,11.304-10.363c-2.973-4-1.189-4.77-5.652-5.65c1.256-3.455,2.512-6.908,3.768-10.363
	c-4.442-2.211-11.224-1.885-16.957-0.941c3.325,12.066-0.702,7.725,0.942,22.609c-4.865-2.363-2.763-2.268-7.536,0.941
	c-1.884,2.826-3.768,5.652-5.652,8.479c-3.295-2.672-6.6-1.482-12.248-2.826c-0.163-9.436-0.978-29.316,3.769-34.855
	c0.942,0.943,1.885,1.885,2.826,2.828c0.131-5.334,4.629-7.576,2.826-16.016c-1.719-8.041-4.756-11.617-2.826-20.727
	c5.6,1.768,6.459,5.244,8.479,10.361c-2.889,1.408-3.028,1.051-4.71,3.77c6.302,0.516,4.944,2.562,9.42,6.596
	c10.394-7.49,8.852-9.871,14.131,3.768c-4.766,0.754-5.106,0.479-6.594,4.711c4.873,1.061,5.01,1.381,6.594,5.652
	c1.256,0,2.512,0,3.768,0c0-0.943,0-1.885,0-2.826c-2.062-5.768-4.427-12.543,0.942-12.248c5.219-3.705,9.138-10.602,14.131-11.305
	c-1.256-4.082-2.513-8.166-3.769-12.246c0.628,0,1.256,0,1.885,0c3.085-1.781,4.649-1.613,8.478-0.941
	c-0.369-8.072,4.29-6.305,7.536-15.072c-3.141-1.57-6.28-3.141-9.42-4.711c0.779-2.074,0.887-10.041-0.942-15.072
	c-0.314,0.627-0.628,1.256-0.942,1.885c-1.571,4.082-3.14,8.164-4.71,12.246c-4.887-1.094-4.22-0.379-7.537,0
	c-0.627-1.256-1.255-2.512-1.884-3.768c-3.14,2.824-6.28,5.65-9.42,8.477c-6.006-0.787-7.613-2.807-10.363-6.594
	c3.568-3.635,5.232-2.947,5.653-10.361c-0.314,0-0.629,0-0.942,0c-1.256,0.312-2.513,0.629-3.769,0.941
	c1.182-3.418,0.953-5.119-0.942-7.537c-3.645,2.986-2.705,4.648-6.594,2.826c-14.848-5.139-22.648-8.555-17.899-28.262
	c-4.865,2.428-5.346,4.484-7.536,9.42c-0.627-0.312-1.256-0.627-1.884-0.939c-2.799-13.078-17.862-25.605-35.798-16.016
	c0,2.199,0,4.396,0,6.594c-7.034,1.234-7.712,3.475-15.072,2.826c3.583,21.785-10.604,33.678-17.899,48.986
	c-0.942,5.965-1.884,11.936-2.826,17.898c-5.024,2.512-10.05,5.023-15.073,7.535c-4.806,7.441,0.348,8.562-8.478,12.248
	c0,2.824,0,5.65,0,8.479c5.154,0.68,1.847-0.963,4.71,2.826c5.14-2.498,4.025,0.348,10.362-0.941
	c1.945-4.252,9.758-9.812,13.189-13.188c0.627,0.311,1.256,0.627,1.884,0.939c1.745,8.742,6.084,14.492,16.015,15.074
	c9.865-6.057,10.354-8.686,16.014-18.842c4.397,1.57,8.793,3.139,13.189,4.711c1.884-2.514,3.768-5.025,5.652-7.537
	c7.542,2.963,7.829-1.012,15.073-2.826c2.495,13.125-1.213,45.818-6.594,49.928c-3.998,1.877-10.529,5.092-15.073,5.654
	c0.314,2.826,0.628,5.65,0.942,8.479c-4.71-1.387-5.279-3.137-9.42-2.826c0,0.314,0,0.627,0,0.941
	c2.512,1.57,5.024,3.143,7.536,4.709c-0.628,1.258-1.256,2.516-1.884,3.77c5.043,0.064,6.901,0.547,9.42,2.826
	c-0.628,1.256-1.255,2.514-1.884,3.77c4.84-0.057,4.85,0.6,7.537,0.941c0.399-2.451-0.919-0.516,0.942-2.826
	c2.197-0.314,4.396-0.629,6.594-0.941c0.942,0.627,1.884,1.258,2.826,1.885c-3.14,3.141-6.281,6.277-9.42,9.422
	c0.628,1.883,1.255,3.768,1.884,5.648c-4.681-0.668-3.863-1.852-6.595,0c2.153,5.248-0.863,8.605-2.826,15.072
	c-2.198-0.939-4.396-1.881-6.594-2.824c-0.314,0.943-0.628,1.885-0.942,2.824c1.552,7.514-3.698,9.951-5.652,16.959
	c1.57,0.629,3.14,1.256,4.71,1.885c-2.94,2.273-2.396,0.273-3.768,4.709c1.884,3.77,3.768,7.535,5.652,11.305
	c-4.71-3.77-9.42-7.535-14.131-11.305c-1.255,0.312-2.512,0.629-3.768,0.941c1.57,1.885,3.14,3.77,4.71,5.652
	c2.827,1.885,5.653,3.768,8.479,5.652c-1.717,3.717-2.376,6.295,0,9.422c1.884-1.258,3.768-2.516,5.652-3.77
	c0,0.311,0,0.627,0,0.939c-2.112,6.418-4.124,9.588-7.536,14.131c-3.455-0.629-6.91-1.258-10.363-1.887
	c-5.169-12.059-14.184-6.938-20.725-16.014c-4.71-12.559-9.42-25.123-14.13-37.684c-3.309-4.035-10.62-4.096-14.131-8.479
	c0.689-3.229,1.286-0.227,0-3.768c-2.512-0.629-5.024-1.256-7.536-1.885c0-3.766,0-7.535,0-11.305
	c-4.273,1.898-4.702,6.305-7.536,9.42c0.313,0.629,0.628,1.258,0.942,1.885c12.511,2.637,25.974,20.51,23.551,34.857
	c-5.898-3.316-9.191-3.852-15.073-0.943c-0.314,1.885-0.628,3.77-0.942,5.652c-2.198-0.941-4.396-1.885-6.595-2.828
	c-1.884-3.768-3.769-7.535-5.653-11.303c-3.925,1.352-2.145,1.164-6.594,0c1.322-8.742-7.242-14.637-13.188-18.842
	c-2.827,0.312-5.653,0.629-8.479,0.941c-2.826-6.908-5.652-13.818-8.478-20.727c-4.417,0.131-6.443,0.174-8.479-1.885
	c1.256-0.312,2.513-0.629,3.769-0.939c-0.606-3.428-0.381-2.854-1.884-4.711c-1.256,1.881-2.513,3.768-3.769,5.65
	c-1.255-0.629-2.512-1.256-3.768-1.885c0.628-2.197,1.256-4.395,1.884-6.594c1.256,0.312,2.513,0.629,3.768,0.939
	c-1.216-5.736-2.83-6.391-7.536-8.479c-1.529,2.68-2.157,8.41-2.826,12.246c-0.314-0.627-0.628-1.254-0.942-1.883
	c-2.512-1.258-5.024-2.514-7.536-3.77c-0.314,1.57-0.629,3.141-0.942,4.709c0-0.627,0-1.256,0-1.885
	c-6.685-10.307-7.245-25.742-17.899-32.027c-0.629,0.941-1.256,1.885-1.884,2.826c-0.942,5.338-1.884,10.676-2.826,16.016
	c-3.606-1.246-1.959,0.002-3.769-2.826c-3.579-13.023,8.722-25.91,7.537-37.684c-5.47-54.277-7.927-121.613,10.358-166.734
	c8.423-20.785,19.112-41.586,31.088-59.348c5.56-8.248,13.798-13.133,18.84-22.611c-2.474-1.531-0.775-1.094-3.768-0.941
	c3.275-8.627,35.68-40.258,44.276-45.217c0.314,1.568,0.628,3.141,0.942,4.709c6.64-2.516,4.649-7.889,9.421-11.305
	c7.536-0.941,15.074-1.885,22.608-2.826c3.871,4.297,11.524,11.928,16.957,11.305c0.571,4.355,1.275,5.557-0.942,8.48
	c-1.256-1.256-2.512-2.512-3.768-3.77c0,0.629,0,1.258,0,1.885c0,2.197,0,4.395,0,6.594c0.314,0,0.627,0,0.942,0
	c18.819-4.66,27.539-13.068,40.508-22.609c0.942,0,1.884,0,2.826,0c0,0.314,0,0.629,0,0.943c-0.628,2.512-1.256,5.025-1.884,7.537
	c4.794-1.533,5.307-3.773,7.536-7.537c7.643,0.498,9.573,0.201,15.073-1.885c0,0.941,0,1.885,0,2.824
	c1.57-1.254,3.141-2.512,4.71-3.768c1.884,2.512,3.768,5.023,5.652,7.537c0.942-0.314,1.884-0.629,2.826-0.943
	c-0.628-1.568-1.256-3.141-1.884-4.709c3.114,1.295,4.043,1.711,7.537,0.941c0.313-1.883,0.627-3.768,0.942-5.652
	c12.403,3.521,19.958,6.137,34.855,4.711c0-0.312,0-0.629,0-0.941c-0.942-0.941-1.884-1.885-2.826-2.826
	c4.757-3.26,6.253-4.34,8.478-10.363c13.093,3.402,28.53-8.477,36.74-14.131c3.072,1.299,1.829,0.949,3.769,2.826
	c5.369-4.818,15.828-3.357,20.726-11.303c1.885-6.281,3.769-12.562,5.651-18.843c1.683,2.453,1.504,1.518,0.942,4.709
	c1.569,0.943,3.14,1.885,4.71,2.826c-1.57,3.771-3.141,7.538-4.71,11.306c0.628-0.312,1.256-0.627,1.884-0.941
	c1.256,0,2.513,0,3.769,0c1.501-6.275,2.943-9.404,6.596-13.19c-1.57-3.766-3.142-7.535-4.71-11.303
	c8.478-10.676,16.958-21.354,25.435-32.031c1.882-0.312,3.769-0.627,5.652-0.941c-2.354,7.578-9.681,11.252-14.131,16.957
	c1.703,5.148,0.151,8.762,1.884,13.189c0.312,0,0.628,0,0.941,0c4.669-5.617,16.759-10.887,26.378-14.131
	c0.289,5.615,1.258,11.652,3.769,15.072c0.627-0.314,1.255-0.627,1.884-0.941c1.256-2.828,2.513-5.652,3.77-8.479
	c0.627,0.312,1.256,0.627,1.884,0.941c0.036,5.197-0.265,5.451,2.826,7.537C418.11,132.812,421.565,133.441,425.019,134.07z"/>
<path fill="#378F43" d="M327.046,295.161c1.885,0.312,3.77,0.627,5.654,0.939c1.128,6.396,5.403,10.156,8.478,15.074
	c2.512,0,5.024,0,7.536,0c0,0.941,0,1.883,0,2.824c-3.081,6.01-15.751,17.121-22.609,18.842c-0.941-2.512-1.884-5.023-2.825-7.535
	c-2.826,1.883-5.652,3.768-8.479,5.65c1.248,3.283,1.74,5.002,0.942,8.479c-7.25,3.701-8.17,7.82-16.015,10.363
	c0.314,0.629,0.627,1.256,0.942,1.885c4.083,1.256,8.165,2.512,12.247,3.768c-1.256,1.568-2.513,3.141-3.768,4.711
	c-16.39-0.545-28.819,1.154-34.856,11.305c-3.425-0.605-2.852-0.381-4.71-1.885c-4.599-2.422-6.332-6.424-6.594-13.189
	c3.399-2.285,8.54-3.557,11.304-6.594c-3.867-10.66-2.702-18.15,0.942-29.203c1.884,0.941,3.768,1.887,5.652,2.826
	c4.082-4.082,8.165-8.164,12.247-12.246c0.942,0,1.884,0,2.826,0c0.314,0.627,0.628,1.256,0.942,1.883
	c-2.198,5.969-4.396,11.938-6.594,17.9c1.255-0.627,2.512-1.256,3.768-1.885c4.873-3.027,5.797-11.039,8.478-16.016
	c1.57,0,3.14,0,4.709,0c-0.745,4.879-2.719,8.732-0.941,13.189c4.305-5.342,4.352-6.936,8.479-11.305
	c0.629,0.312,1.256,0.627,1.885,0.939c1,4.561,0.486,4.232,4.71,5.652c-1.866-7.873-6.117-12.607-4.71-21.666
	C320.139,298.3,323.593,296.729,327.046,295.161z"/>
<path fill="#378F43" d="M360.961,326.247c3.55,3.672,5.083,10.406,5.651,16.957c-1.257,1.883-2.513,3.768-3.769,5.652
	C352.13,343.185,356.961,335.288,360.961,326.247z"/>
<path fill="#378F43" d="M330.815,376.177c3.77,1.568,7.536,3.141,11.306,4.709c0,1.258,0,2.514,0,3.771
	c-1.57,2.824-3.143,5.65-4.71,8.479c-7.062-1.404-8.71-6.707-11.307-12.248C327.675,379.315,329.246,377.745,330.815,376.177z"/>
<path fill="#378F43" d="M341.178,393.134c1.256,1.254,2.512,2.512,3.769,3.77c-4.692,10.078-7.514,14.721-19.783,17.896
	c0,3.453,0,6.906,0,10.361c2.604,0.422,2.378,0.002,4.711,2.826c-0.52,8.219-5.08,11.838-12.247,13.189
	c-0.197-12.688-2.921-14.021-1.884-24.494c4.211,0.146,2.678,2.152,4.71-1.883c-0.942-2.514-1.884-5.023-2.826-7.537
	c0.628,0,1.256,0,1.884,0c6.179-2.238,12.157-0.752,17.9-3.768C338.051,397.687,337.201,396.632,341.178,393.134z"/>
<path fill="#378F43" d="M377.918,396.901c2.976,4.041,0.365,4.609,5.652,7.535c4.914-1.1,5.896-1.879,5.651,2.826
	c0.314,0.314,0.628,0.627,0.942,0.941c8.654-1.904,10.509,5.377,16.015,9.422c-0.628,0.939-1.256,1.883-1.884,2.826
	c-2.198,1.254-4.397,2.512-6.595,3.768c0.629,1.883,1.256,3.768,1.884,5.652c7.301,1.902,15.432,6.277,19.783,11.305
	c-2.113,3.506-1.383,6.662-2.826,12.246c-25.105-0.281-30.429-12.764-48.044-18.842c-0.314,0.312-0.628,0.629-0.942,0.941
	c0,3.455,0,6.908,0,10.363c-3.454-1.57-6.907-3.141-10.361-4.711c1.255-0.941,2.513-1.885,3.769-2.826
	c-6.259-5.268-7.37-7.172,0-12.246c0.312,0,0.627,0,0.941,0c0,1.256,0,2.514,0,3.77c3.21-2.295,5.04-5.553,6.595-9.42
	c-3.77-2.199-7.536-4.398-11.305-6.596c4.968-3.24,4.723-3.064,3.769-10.361c3.454-1.57,6.908-3.143,10.361-4.711
	c1.57,1.256,3.142,2.514,4.711,3.768C376.497,398.741,376.634,399.03,377.918,396.901z"/>
<path fill="#378F43" d="M451.397,520.308c0,3.77,0,7.535,0,11.305c-7.344,3.273-10.506,8.348-14.132,15.072
	c2.083,1.092,6.781,9.004,6.596,11.307c-0.313,0-0.628,0-0.942,0c-2.513-1.572-5.024-3.141-7.536-4.711
	c-0.941,0.312-1.884,0.629-2.826,0.941c0,1.256,0,2.51,0,3.77c1.979,3.621,4.628,6.656,3.769,10.359
	c-0.853,7.463-2.508,5.592-6.594,7.535c1.995,3.789,3.846,6.604,0.941,10.365c-1.571-2.199-3.142-4.396-4.711-6.596
	c-1.57,0.312-3.141,0.627-4.71,0.941c-0.313,2.197-0.628,4.396-0.942,6.594c-3.433-1.416-4.375-1.592-8.478-0.939
	c-0.088-3.334,0.218-2.465-0.942-5.654c-2.825-0.629-5.651-1.254-8.479-1.881c-0.313,0.312-0.627,0.627-0.942,0.939
	c0.629,2.514,1.256,5.023,1.886,7.535c-1.257-0.312-2.513-0.625-3.77-0.939c0.941,5.336,1.885,10.676,2.827,16.016
	c4.253,0.201,5.078,0.664,7.535,1.883c0.627,2.197,1.257,4.396,1.885,6.596c-3.668,1.936-3.666,3.08-4.71,7.537
	c-2.198,0-4.396,0-6.596,0c-1.518-6.104-0.586-10.398-4.71-14.133c-0.312,0-0.628,0-0.941,0c0.313,1.887,0.628,3.77,0.941,5.654
	c-5.855-0.785-10.374-1.389-14.131,1.881c2.573,3.105,1.65,5.377,3.77,8.48c5.811-2.305,12.967,3.256,17.897,7.535
	c0,0.312,0,0.629,0,0.941c-0.628,0-1.256,0-1.884,0c-17.756,8.84-29.487,1.74-40.508-7.535c-0.942,0-1.884,0-2.826,0
	c-0.628,2.824-1.256,5.65-1.884,8.48c-11.396-3.213-20.29,14.361-28.263-3.771c-2.826,1.885-5.652,3.771-8.479,5.652
	c-1.554-3.398-0.257-2.213-3.768-3.771c-2.106,3.814-5.599,5.539-9.421,7.537c0.312-0.939,0.629-1.883,0.942-2.824
	c-2.198,0.941-4.396,1.885-6.594,2.824c0.206,3.141,0.88,2.168-0.942,4.711c-0.314,0-0.628,0-0.942,0
	c-1.23-4.213,0.624-1.893-2.826-3.77c-2.716,10.699-20.707,11.141-25.435,13.189c1.57,2.514,3.141,5.021,4.71,7.537
	c-0.627,0-1.256,0-1.884,0c-2.512,0.312-5.024,0.627-7.536,0.939c-2.198-2.197-4.396-4.395-6.595-6.594
	c2.827-1.887,5.653-3.77,8.479-5.652c-1.571-2.512-3.141-5.021-4.71-7.535c-4.797-1.674-6.303,0.49-9.421-2.826
	c3.105-3.807,4.844-9.018,5.652-15.072c-1.255-0.629-2.512-1.256-3.768-1.885c1.234-6.354,8.343-15.697,11.305-17.898
	c1.57,0.941,3.141,1.885,4.71,2.828c1.57-1.887,3.141-3.771,4.71-5.652c0-0.312,0-0.629,0-0.943
	c-3.768-0.941-7.536-1.885-11.304-2.822c0.628-0.314,1.255-0.629,1.884-0.943c1.255-2.512,2.512-5.025,3.768-7.535
	c2.198,0.312,4.396,0.629,6.594,0.941c0-0.312,0-0.629,0-0.941c-1.57-0.943-3.141-1.885-4.71-2.826
	c0.942-1.885,1.884-3.77,2.826-5.652c7.197,2.076,11.998,4.723,17.899,6.596c-0.314-0.629-0.628-1.256-0.942-1.885
	c0-2.514,0-5.025,0-7.535c3.281,1.246,5.002,1.74,8.478,0.939c0-0.312,0-0.627,0-0.939c-1.884-3.455-3.768-6.91-5.652-10.363
	c0.314-0.312,0.627-0.629,0.942-0.939c4.153,2.992,4.673,5.297,9.42,5.648c9.745-7.301,15.87-11.971,21.667-23.551
	c-2.03-7.223-2.47-5.34,1.885-11.305c-2.08-0.332-0.941-1.885-0.941-1.885c2.514-9.484,9.792-9.449,13.188-18.84
	c-0.941-0.629-1.884-1.256-2.826-1.885c4.426-7.285,10.385-9.18,14.131-17.898c-3.893-6.516-8.117-13.715-9.42-22.609
	c2.512-3.455,5.023-6.908,7.535-10.361c0.942,0.627,1.885,1.256,2.826,1.885c0.313,3.453,0.629,6.906,0.941,10.361
	c1.57,0,3.142,0,4.712,0c0.94-0.627,1.884-1.256,2.825-1.885c0-0.312,0-0.627,0-0.941c-1.421-4.471-3.139-4.535-5.651-7.535
	c2.026-5.166,5.055-7.611,9.42-10.361c2.395,6.98,10.067,12.551,16.957,12.246c1.882-3.141,3.769-6.279,5.651-9.422
	c6.575,4.898,10.209,4.539,14.131,7.537c2.198-1.57,4.396-3.141,6.595-4.711c3.141,2.197,6.28,4.396,9.42,6.596
	c0,0.941,0,1.885,0,2.826c-1.884,0.939-3.769,1.885-5.651,2.824c0,0.941,0,1.885,0,2.826c4.082,2.826,8.165,5.652,12.246,8.48
	c4.125-2.641,4.735-5.588,7.536-9.422c2.198,1.885,4.396,3.77,6.595,5.652c0-1.258,0-2.512,0-3.77
	c2.825,1.256,5.651,2.512,8.479,3.77c0,0.312,0,0.629,0,0.941c-1.568,0.627-3.14,1.256-4.71,1.883
	c0.314,0.629,0.628,1.256,0.942,1.885c7.773,0.078,13.17,1.859,17.897,4.711c-0.312,2.514-0.628,5.023-0.94,7.537
	c-2.199,0-4.397,0-6.595,0c1.256,1.57,2.513,3.141,3.769,4.709c-1.256,2.516-2.513,5.025-3.769,7.537
	c1.885,0.629,3.769,1.256,5.651,1.883c4.056-1.709,3.208-3.107,7.536-4.709c1.571,1.57,3.14,3.143,4.71,4.709
	c-2.826,2.514-5.652,5.025-8.479,7.537c-3.769-0.627-7.535-1.256-11.305-1.883c0,0.941,0,1.883,0,2.826
	c3.141,1.256,6.279,2.512,9.42,3.768c-0.628,0-1.256,0-1.884,0C457.049,520.308,454.224,520.308,451.397,520.308z"/>
<path fill="#378F43" d="M636.979,472.265c2.198,1.256,4.396,2.514,6.594,3.77c0.554,18.668,8.515,36.875,6.595,45.217
	c1.886,0.627,3.77,1.258,5.652,1.885c-1.569,1.885-3.141,3.77-4.709,5.652c-1.316-9.504-10.094-15.852-17.898-23.553
	c0.741-8.688,5.547-13.016,6.594-19.781C640.891,478.44,635.988,478.577,636.979,472.265z"/>
<path fill="#378F43" d="M384.512,663.499c0.628,0,1.255,0,1.884,0c3.738,3.664,3.848,11.438,8.479,14.131
	c0.312-1.568,0.628-3.141,0.941-4.711c0.941,1.256,1.885,2.512,2.825,3.77c0.314-0.941,0.629-1.887,0.942-2.826
	c4.337,1.811,3.119,3.496,5.652,6.596c3.767-2.201,7.535-4.396,11.305-6.596c1.448,6.043,4.73,7.65,7.536,12.244
	c-2.01,5.027-4.957,5.539-6.596,11.307c-16.171-3.326-24.597,6.453-39.564-10.361c5.229,0.209,5.183,0.688,8.479-0.943
	c0-0.314,0-0.627,0-0.941c-0.94-1.883-1.884-3.768-2.825-5.65c3.425-0.604,2.852-0.383,4.71-1.885c0-0.939,0-1.885,0-2.826
	c-3.769-1.885-7.535-3.77-11.306-5.65c0.629-0.312,1.257-0.629,1.885-0.941C380.744,666.638,382.628,665.069,384.512,663.499z"/>
<path fill="#378F43" d="M458.934,766.183c5.062,3.42,6.21,4.785,4.71,10.359c6.634-0.949,9.608-0.518,13.188,3.771
	c-3.77,3.451-7.537,6.908-11.305,10.359c0,0.312,0,0.629,0,0.943c9.683,0.809,29.433,24.949,34.854,32.027c0,0.627,0,1.256,0,1.883
	c-4.844,2.875-9.457,4.021-10.362,11.307c-10.508-1.283-16.559,0.082-23.552,3.77c-3.049-2.885-4.909-3.949-6.594-8.479
	c5.823,1.947,10.062,2.699,12.246-3.77c-8.617,2.029-10.664,1.365-19.782-1.885c0-1.256,0-2.512,0-3.768
	c7.091-5.43,9.083-5.414,18.841-7.537c-0.122-5.283-0.797-12.576-2.826-16.016c-3.035,1.203-3.377,1.523-6.595,0.941
	c-2.01-7.873-4.053-16.221-9.42-16.016c0.313-0.941,0.627-1.883,0.942-2.826c1.255-0.939,2.512-1.885,3.768-2.826
	c-0.941-2.512-1.884-5.021-2.825-7.535C455.793,769.321,457.363,767.751,458.934,766.183z"/>
</svg>
